/* XPM */
static char *_diamond[] = {
/* columns rows colors chars-per-pixel */
"32 32 85 1 ",
"  c #427C54",
". c #437C54",
"X c #437D55",
"o c #437E55",
"O c #447F56",
"+ c #478054",
"@ c #45835A",
"# c #468459",
"$ c #478559",
"% c #45845A",
"& c #47865B",
"* c #488558",
"= c #48875B",
"- c #49895C",
"; c #498A5D",
": c #4A8B5E",
"> c #4B8E5F",
", c #4E8E5D",
"< c #4D8F5F",
"1 c #c7be8d",
"2 c #e2d8a8",
"3 c #e1d7a7",
"4 c #dbd59c",
"5 c #e6ddac",
"6 c #dad49c",
"7 c #d2cc94",
"8 c #d8d29a",
"9 c #e2dca5",
"0 c #5D9D5D",
"q c #5F9E5D",
"w c #669C52",
"e c #609F5C",
"r c #619F5C",
"t c #609E5D",
"y c #609F5D",
"u c #66A158",
"i c #65A25B",
"p c #66A35B",
"a c #67A35B",
"s c #67A45A",
"d c #61A05C",
"f c #62A05C",
"g c #63A05C",
"h c #63A15C",
"j c #6AA659",
"k c #6BA659",
"l c #69A55A",
"z c #6AA55A",
"x c #6AA65A",
"c c #6DA859",
"v c #6FA958",
"b c #6EA859",
"n c #75AC55",
"m c #75AD56",
"M c #76AE56",
"N c #79AF55",
"B c #7AB055",
"V c #7BB156",
"C c #7CB154",
"Z c #4B8E60",
"A c #4B8F60",
"S c #4C8F60",
"D c #4B9162",
"F c #4C9060",
"G c #4C9061",
"H c #4C9161",
"J c #4D9161",
"K c #4F9361",
"L c #4C9162",
"P c #4D9162",
"I c #4C9262",
"Y c #4D9362",
"T c #4D9263",
"R c #4D9363",
"E c #4E9262",
"W c #4E9362",
"Q c #4aedd1",
"! c #1b7b6b",
"~ c #209581",
"^ c #2ccdb1",
"/ c #a2f6e7",
"( c #d1faf3",
") c #ffffff",
"_ c #0c3730",
"U c #d9d29b",
/* pixels */
"158425845U84528411U158U458458U45",
"457457U45U7U457UU457U4257U54U7U4",
"452754U7245U754U7457U547425754U7",
"8738U4583458________6U5476U3467U",
"346173476834________9U34583485U3",
"2878936U45__))))))))__UU547457U2",
"4587689347__))))))))__86U348U1U3",
"U57457U4__))//////((^^__7U54U7U4",
"UU878916__))//////((^^__U547457U",
"57457U__))((////))QQQQ__U54U7U4U",
"U34787__))((////))QQQQ__U5894U52",
"987416__))//))((((((QQ^^__834636",
"458768__))//))((((((QQ^^__48U6U3",
"1738__))//))////////~~QQ__464571",
"4U74__))//))////////~~QQ__346365",
"4584__))//((////////~~QQ^^__684U",
"4387__))//((////////~~QQ^^__2U3U",
"UU52__))((^^////////~~!!!!__68UU",
"264U__))((^^////////~~!!!!__2184",
"4586__))QQQQ~~~~~~~~^^^^~~__8U4U",
"3421__))QQQQ~~~~~~~~^^^^~~__7U67",
"U56237__QQ!!^^^^^^^^!!^^__36U384",
"974U74__QQ!!^^^^^^^^!!^^__431U6U",
"517857__^^!!^^^^^^^^!!~~__57U77U",
"734U34__^^!!^^^^^^^^!!~~__U616UU",
"71415757__~~^^^^^^^^~~__346U436U",
"78426864__~~^^^^^^^^~~__64U74268",
"8648245713____________U684678U66",
"1243957UU7____________7U883518UU",
"45U6854U687U453867U7U456U546U745",
"U347873465787348523U5923U5894U52",
"34574572578956U8345U68346348U6U4"
};