/* XPM */
static char *_door[] = {
/* columns rows colors chars-per-pixel */
"32 32 85 1 ",
"  c #427C54",
". c #437C54",
"X c #437D55",
"o c #437E55",
"O c #447F56",
"+ c #478054",
"@ c #45835A",
"# c #468459",
"$ c #478559",
"% c #45845A",
"& c #47865B",
"* c #488558",
"= c #48875B",
"- c #49895C",
"; c #498A5D",
": c #4A8B5E",
"> c #4B8E5F",
", c #4E8E5D",
"< c #4D8F5F",
"1 c #c7be8d",
"2 c #e2d8a8",
"3 c #e1d7a7",
"4 c #dbd59c",
"5 c #e6ddac",
"6 c #dad49c",
"7 c #d2cc94",
"8 c #d8d29a",
"9 c #e2dca5",
"0 c #5D9D5D",
"q c #5F9E5D",
"w c #669C52",
"e c #609F5C",
"r c #619F5C",
"t c #609E5D",
"y c #609F5D",
"u c #66A158",
"i c #65A25B",
"p c #66A35B",
"a c #67A35B",
"s c #67A45A",
"d c #61A05C",
"f c #62A05C",
"g c #63A05C",
"h c #63A15C",
"j c #6AA659",
"k c #6BA659",
"l c #69A55A",
"z c #6AA55A",
"x c #6AA65A",
"c c #6DA859",
"v c #6FA958",
"b c #6EA859",
"n c #75AC55",
"m c #75AD56",
"M c #76AE56",
"N c #79AF55",
"B c #7AB055",
"V c #7BB156",
"C c #7CB154",
"Z c #4B8E60",
"A c #5f636c",
"S c #727c85",
"D c #4B9162",
"F c #4C9060",
"G c #4C9061",
"H c #4C9161",
"J c #4D9161",
"K c #4F9361",
"L c #4C9162",
"P c #4D9162",
"I c #4C9262",
"U c #d9d29b",
"Y c #4D9362",
"T c #4D9263",
"R c #4D9363",
"E c #4E9262",
"W c #4E9362",
"Q c #4F9461",
"! c #866739",
"~ c #a48453",
"^ c #70572f",
"/ c #47351f",
"( c #539660",
") c #5b4726",
"_ c #a48453",
/* pixels */
"15842584_~~____~____~~_~58458U45",
"457457U4/!!!!!!!!!!!!!!)7U54U7U4",
"452754U7_!/))))!/))))!!)74257547",
"8738U458_!)8345!)4365!!/76U3467U",
"34617347S!)4U68!)6893!!~583485U3",
"2878936UA!)U47U!)U755!!)547457U2",
"45876893/!/~^^/!/~^^/!!)U348U1U3",
"U57457U4_!/))))!/))))!!/7U54U7U4",
"UU878916_!)7U15!)53U7!!~U547457U",
"57457U45^!)457U!)7U47!!)U54U7U4U",
"U3478734_!)8738!)3U54!!)U5894U52",
"98741678_!!!/^^^!!/^^!!/U6834636",
"45876893_!//^^^!//^^^!!~3488U6U3",
"1738U458_!/))))!/))))!!)76U34671",
"4U7457U5/!)!!!!!)!!SSA!)68346365",
"45842584S!)^^^^!)^^A^!!/8347684U",
"43875892A!)!!^^!)!!^^!!~U5892U3U",
"UU526U84/!!/^^^!!/^^^!!)268268UU",
"264U864U//^^^^!~^^^^!!)!567U2184",
"45866342_!/))))!/))))!!/482U8U4U",
"3421U523_!)!!!!!)!!!!!!~56767U67",
"U5623764_!)!!!^!)!!!^!!)6836U384",
"974U748U_!)!!^^!)!!^^!!)26431U6U",
"51785786_!!/^^!!!!/^^!!/U357U77U",
"734U34U3!//^^^!//^^^!!//73U616UU",
"78426864/!/))))!/))))!!)64U74268",
"86482457S!)!!!^!)!!!^!!)84678U66",
"1243957UA!)!!^!)!!^^^!!/883518UU",
"45U6854U/!)^^^^!)^^^!!!~U546U745",
"U3478734_!^^^__!^^^^__/)U5894U52",
"71415757_!/^/!/^//^//!!)346U436U",
"34574572////////////////6348U6U4"
};