/* XPM */
static char *_sand[] = {
/* columns rows colors chars-per-pixel */
"32 32 85 1 ",
"  c #427C54",
". c #437C54",
"X c #437D55",
"o c #437E55",
"O c #447F56",
"+ c #478054",
"@ c #45835A",
"# c #468459",
"$ c #478559",
"% c #45845A",
"& c #47865B",
"* c #488558",
"= c #48875B",
"- c #49895C",
"; c #498A5D",
": c #4A8B5E",
"> c #4B8E5F",
", c #4E8E5D",
"< c #4D8F5F",
"1 c #c7be8d",
"2 c #e2d8a8",
"3 c #e1d7a7",
"4 c #dbd59c",
"5 c #e6ddac",
"6 c #dad49c",
"7 c #d2cc94",
"8 c #d8d29a",
"9 c #e2dca5",
"0 c #5D9D5D",
"q c #5F9E5D",
"w c #669C52",
"e c #609F5C",
"r c #619F5C",
"t c #609E5D",
"y c #609F5D",
"u c #66A158",
"i c #65A25B",
"p c #66A35B",
"a c #67A35B",
"s c #67A45A",
"d c #61A05C",
"f c #62A05C",
"g c #63A05C",
"h c #63A15C",
"j c #6AA659",
"k c #6BA659",
"l c #69A55A",
"z c #6AA55A",
"x c #6AA65A",
"c c #6DA859",
"v c #6FA958",
"b c #6EA859",
"n c #75AC55",
"m c #75AD56",
"M c #76AE56",
"N c #79AF55",
"B c #7AB055",
"V c #7BB156",
"C c #7CB154",
"Z c #4B8E60",
"A c #4B8F60",
"S c #4C8F60",
"D c #4B9162",
"F c #4C9060",
"G c #4C9061",
"H c #4C9161",
"J c #4D9161",
"K c #4F9361",
"L c #4C9162",
"P c #4D9162",
"I c #4C9262",
"U c #d9d29b",
"Y c #4D9362",
"T c #4D9263",
"R c #4D9363",
"E c #4E9262",
"W c #4E9362",
"Q c #4F9461",
"! c #509461",
"~ c #519561",
"^ c #529561",
"/ c #529660",
"( c #539660",
") c #509562",
"_ c #559760",
/* pixels */
"158425845U84528411U158U458458U45",
"457457U45U7U457UU457U4257U54U7U4",
"452754U7245U754U7457U547425754U7",
"8738U458345834U583436U5476U3467U",
"346173476834U6834U689U34583485U3",
"2878936U457U417U45U75UUU547457U2",
"45876893475899U345813486U348U1U3",
"U57457U45U7U457UU457U4257U54U7U4",
"UU878916U457U157U45U75UUU547457U",
"57457U45U7U457UU457U4257U54U7U4U",
"U347873465787348523U5923U5894U52",
"987416783476834U68346834U6834636",
"45876893475899U3458U3486U348U6U3",
"1738U458345834U583436U5476U34671",
"4U7457U547425754U146834U68346365",
"458425845U845284598745678347684U",
"438758923U5283U5824U5823U5892U3U",
"UU526U846U7U4U76U248U538268268UU",
"264U864U8U5665427U64U57U467U2184",
"458663425768684288U86U24482U8U4U",
"3421U5236U73U87U867U564U56767U67",
"U5623764363U15726U8U75726836U384",
"974U748U63U5U252U7U67UU326431U6U",
"51785786978921UUU346U317U357U77U",
"734U34U3464U6U46U347314673U616UU",
"714157574U56U345U6346878346U436U",
"7842686476848U76478U78U764U74268",
"86482457138UUU6847U678U684678U66",
"1243957UU7U43U7U431U7U7U883518UU",
"45U6854U687U453867U7U456U546U745",
"U347873465787348523U5923U5894U52",
"34574572578956U8345U68346348U6U4"
};
