/* XPM */
static char *_steve[] = {
/* columns rows colors chars-per-pixel */
"32 32 85 1 ",
"  c #427C54",
". c #437C54",
"X c #437D55",
"o c #437E55",
"O c #447F56",
"+ c #478054",
"@ c #45835A",
"# c #468459",
"$ c #478559",
"% c #45845A",
"& c #47865B",
"* c #488558",
"= c #48875B",
"- c #49895C",
"; c #498A5D",
": c #4A8B5E",
"> c #4B8E5F",
", c #4E8E5D",
"< c #4D8F5F",
"1 c #c7be8d",
"2 c #e2d8a8",
"3 c #e1d7a7",
"4 c #dbd59c",
"5 c #e6ddac",
"6 c #dad49c",
"7 c #d2cc94",
"8 c #d8d29a",
"9 c #e2dca5",
"0 c #5D9D5D",
"q c #5F9E5D",
"w c #669C52",
"e c #609F5C",
"r c #619F5C",
"t c #609E5D",
"y c #609F5D",
"u c #66A158",
"i c #65A25B",
"p c #66A35B",
"a c #67A35B",
"s c #67A45A",
"d c #61A05C",
"f c #62A05C",
"g c #63A05C",
"h c #63A15C",
"j c #6AA659",
"k c #6BA659",
"l c #69A55A",
"z c #6AA55A",
"x c #6AA65A",
"c c #6DA859",
"v c #6FA958",
"b c #623e29",
"n c #67422e",
"m c #593723",
"M c #5f352a",
"N c #734b36",
"B c #553326",
"V c #7d4f38",
"C c #42316e",
"Z c #cccccc",
"A c #261a0a",
"S c #22180a",
"D c #26190c",
"F c #201609",
"G c #1d1306",
"H c #1e1508",
"J c #22180a",
"K c #22170a",
"L c #291d0e",
"P c #35220e",
"I c #23180b",
"U c #d9d29b",
"Y c #201609",
"T c #926e56",
"R c #97725b",
"E c #9e7866",
"W c #976f5b",
"Q c #8a5e48",
"! c #2a1e0e",
"~ c #886452",
"^ c #906a57",
"/ c #8a6657",
"( c #7d5b4a",
") c #966e5b",
"_ c #7d543d",
/* pixels */
"86482457138UUU6847U678U684678U66",
"158425845U84528411U158U458458U45",
"457457U45U7U457UU457U4257U54U7U4",
"452754U7245U754U7457U547425754U7",
"8735AAASSSDDDFFFGGGHHHJJJKKK467U",
"3461AAASSSDDDFFFGGGHHHJJJKKK85U3",
"2878AAASSSDDDFFFGGGHHHJJJKKK57U2",
"4587SSSSSSSSSLLLPPPPPPIIIYYYU1U3",
"U574SSSSSSSSSLLLPPPPPPIIIYYYU7U4",
"UU87SSSSSSSSSLLLPPPPPPIIIYYY457U",
"5745SSSTTTRRREEEWWWRRRQQQ!!!7U4U",
"U347SSSTTTRRREEEWWWRRRQQQ!!!4U52",
"9874SSSTTTRRREEEWWWRRRQQQ!!!4636",
"4587~~~^^^~~~///((()))______U6U3",
"1738~~~^^^~~~///((()))______4671",
"4U74~~~^^^~~~///((()))______6365",
"4584^^^ZZZCCC)))TTTCCCZZZ^^^684U",
"4387^^^ZZZCCC)))TTTCCCZZZ^^^2U3U",
"UU52^^^ZZZCCC)))TTTCCCZZZ^^^68UU",
"264UVVV)))(((VVVVVV(((VVVRRR2184",
"4586VVV)))(((VVVVVV(((VVVRRR8U4U",
"3421VVV)))(((VVVVVV(((VVVRRR7U67",
"U562NNNVVVMMMMMMMMMMMMVVVNNNU384",
"974UNNNVVVMMMMMMMMMMMMVVVNNN1U6U",
"5178NNNVVVMMMMMMMMMMMMVVVNNNU77U",
"734Ummmmmmnnnnnnmmmnnnnnnbbb16UU",
"7141mmmmmmnnnnnnmmmnnnnnnbbb436U",
"7842mmmmmmnnnnnnmmmnnnnnnbbb4268",
"1243957UU7U43U7U431U7U7U883518UU",
"45U6854U687U453867U7U456U546U745",
"U347873465787348523U5923U5894U52",
"34574572578956U8345U68346348U6U4"
};