/* XPM */
static char *_wall[] = {
/* columns rows colors chars-per-pixel */
"32 32 85 1 ",
"  c #427C54",
". c #437C54",
"X c #437D55",
"o c #437E55",
"O c #447F56",
"+ c #478054",
"@ c #45835A",
"# c #468459",
"$ c #478559",
"% c #45845A",
"& c #47865B",
"* c #488558",
"= c #48875B",
"- c #49895C",
"; c #498A5D",
": c #4A8B5E",
"> c #4B8E5F",
", c #4E8E5D",
"< c #4D8F5F",
"1 c #c7be8d",
"2 c #e2d8a8",
"3 c #e1d7a7",
"4 c #dbd59c",
"5 c #e6ddac",
"6 c #dad49c",
"7 c #d2cc94",
"8 c #d8d29a",
"9 c #e2dca5",
"0 c #5D9D5D",
"q c #5F9E5D",
"w c #669C52",
"e c #609F5C",
"r c #619F5C",
"t c #609E5D",
"y c #609F5D",
"u c #66A158",
"i c #65A25B",
"p c #66A35B",
"a c #67A35B",
"s c #67A45A",
"d c #61A05C",
"f c #62A05C",
"g c #63A05C",
"h c #63A15C",
"j c #6AA659",
"k c #6BA659",
"l c #69A55A",
"z c #6AA55A",
"x c #6AA65A",
"c c #6DA859",
"v c #6FA958",
"b c #6EA859",
"n c #75AC55",
"m c #75AD56",
"M c #76AE56",
"N c #79AF55",
"B c #7AB055",
"V c #7BB156",
"C c #7CB154",
"Z c #4B8E60",
"A c #4B8F60",
"S c #4C8F60",
"D c #4B9162",
"F c #4C9060",
"G c #4C9061",
"H c #4C9161",
"J c #4D9161",
"K c #4F9361",
"L c #4C9162",
"P c #4D9162",
"I c #4C9262",
"Y c #4D9362",
"T c #4D9263",
"R c #4D9363",
"E c #4E9262",
"W c #4E9362",
"Q c #4aedd1",
"! c #000000",
"~ c #209581",
"^ c #11801f",
"/ c #0e6719",
"( c #d1faf3",
") c #ffffff",
"_ c #0d5f18",
"U c #d9d29b",
/* pixels */
"15!!//845U84!!//1U158U45!!//8U45",
"45!!//U45U7U!!//U457U425!!//U7U4",
"//________!!__________!!______U7",
"//________!!__________!!______7U",
"!!__//^^^^//!!//^^//!!//!!//__U3",
"!!__//^^^^//!!//^^//!!//!!//__U2",
"45__!!//^^////^^^^^^//^^////__!!",
"U5__!!//^^////^^^^^^//^^////__!!",
"UU__//^^//!!//^^^^//^^^^^^!!__//",
"57__//^^//!!//^^^^//^^^^^^!!__//",
"//__!!//^^//^^^^//!!//^^^^^^__52",
"//__!!//^^//^^^^//!!//^^^^^^__36",
"!!__//^^^^^^^^^^^^//^^^^^^//__U3",
"!!__//^^^^^^^^^^^^//^^^^^^//__71",
"4U!!//^^^^^^//^^^^^^^^^^//!!__65",
"45!!//^^^^^^//^^^^^^^^^^//!!__4U",
"43__!!//^^//!!//^^^^^^^^^^//!!!!",
"UU__!!//^^//!!//^^^^^^^^^^//!!!!",
"26__//^^^^^^//^^^^^^^^^^!!//__//",
"45__^^^^^^^^//^^^^^^^^^^!!//__//",
"34__^^^^^^^^^^^^^^^^//^^//^^__!!",
"U5__^^^^^^^^^^^^^^^^//^^//^^__!!",
"//__//^^^^^^^^^^^^//!!//^^//__//",
"//__//^^^^^^^^^^^^//!!//^^//__//",
"!!__!!//^^^^^^^^//^^//^^//!!__UU",
"!!__!!//^^^^^^^^//^^//^^//!!__6U",
"78__!!//^^^^^^^^!!//^^//!!//__68",
"86__!!//^^^^^^^^!!//^^//!!//__66",
"12________!!________!!________!!",
"45______!!__________!!________!!",
"!!4787!!65787348//!!5923U5//!!//",
"!!5745!!578956U8//!!683463//!!//"
};